<svg width="38" height="38" viewBox="0 0 38 38" fill="none" xmlns="http://www.w3.org/2000/svg">
<path d="M15.8333 14.25L15.1262 14.9571L14.4191 14.25L15.1262 13.5429L15.8333 14.25ZM21.4595 21.2905L15.1262 14.9571L16.5404 13.5429L22.8738 19.8762L21.4595 21.2905ZM15.1262 13.5429L21.4595 7.20957L22.8738 8.62378L16.5404 14.9571L15.1262 13.5429Z" fill="black"/>
<path d="M6.65914 17.8125C5.09068 19.1708 4.46246 20.75 4.87191 22.305C5.28136 23.86 6.7056 25.3041 8.92373 26.4131C11.1419 27.5222 14.0299 28.2343 17.14 28.439C20.2501 28.6438 23.4084 28.3297 26.125 27.5454C28.8416 26.7612 30.9648 25.5507 32.1653 24.1016C33.3657 22.6526 33.5763 21.0459 32.7644 19.5309C31.9526 18.0159 30.1635 16.6772 27.6749 15.7224C25.1862 14.7675 22.1369 14.25 19 14.25" stroke="black" stroke-width="2" stroke-linecap="round"/>
</svg>
