<svg width="41" height="38" viewBox="0 0 41 38" fill="none" xmlns="http://www.w3.org/2000/svg">
<path d="M5.01392 11.0833H35.0972H34.0834C32.1977 11.0833 31.2549 11.0833 30.6691 11.6691C30.0834 12.2549 30.0834 13.1977 30.0834 15.0833V27.6667C30.0834 29.5523 30.0834 30.4951 29.4976 31.0809C28.9118 31.6667 27.969 31.6667 26.0834 31.6667H14.0278C12.1422 31.6667 11.1994 31.6667 10.6136 31.0809C10.0278 30.4951 10.0278 29.5523 10.0278 27.6667V15.0833C10.0278 13.1977 10.0278 12.2549 9.44202 11.6691C8.85623 11.0833 7.91342 11.0833 6.0278 11.0833H5.01392Z" fill="#FF5C5C" stroke="black" stroke-width="1.2" stroke-linecap="round"/>
<path d="M16.713 23.75L16.713 19" stroke="black" stroke-width="1.2" stroke-linecap="round"/>
<path d="M23.3981 23.75L23.3981 19" stroke="black" stroke-width="1.2" stroke-linecap="round"/>
<path d="M16.8268 5.33677C17.0173 5.16843 17.4369 5.01969 18.0207 4.9136C18.6045 4.8075 19.3197 4.75 20.0555 4.75C20.7914 4.75 21.5066 4.8075 22.0904 4.9136C22.6741 5.01969 23.0938 5.16843 23.2842 5.33677" stroke="black" stroke-width="1.2" stroke-linecap="round"/>
</svg>
